<mxfile host="app.diagrams.net" modified="2024-06-13T23:25:59.008Z" agent="Mozilla/5.0 (Windows NT 10.0; Win64; x64) AppleWebKit/537.36 (KHTML, like Gecko) Chrome/125.0.0.0 Safari/537.36" etag="9LN2t2JRLmzE0_ya1gcT" version="24.5.1" type="device">
  <diagram name="PÃ¡gina-1" id="gpmNg16g3lwTmOxojFNA">
    <mxGraphModel dx="1560" dy="1559" grid="1" gridSize="10" guides="1" tooltips="1" connect="1" arrows="1" fold="1" page="1" pageScale="1" pageWidth="827" pageHeight="1169" math="0" shadow="0">
      <root>
        <mxCell id="0" />
        <mxCell id="1" parent="0" />
        <mxCell id="0hIwDiAUV1p9HRc8LsoU-10" style="edgeStyle=orthogonalEdgeStyle;rounded=0;orthogonalLoop=1;jettySize=auto;html=1;endArrow=none;endFill=0;" edge="1" parent="1" source="0hIwDiAUV1p9HRc8LsoU-1" target="0hIwDiAUV1p9HRc8LsoU-2">
          <mxGeometry relative="1" as="geometry" />
        </mxCell>
        <mxCell id="0hIwDiAUV1p9HRc8LsoU-32" style="edgeStyle=orthogonalEdgeStyle;rounded=0;orthogonalLoop=1;jettySize=auto;html=1;exitX=0.25;exitY=0;exitDx=0;exitDy=0;endArrow=oval;endFill=1;" edge="1" parent="1" source="0hIwDiAUV1p9HRc8LsoU-1">
          <mxGeometry relative="1" as="geometry">
            <mxPoint x="470.1428571428571" y="120" as="targetPoint" />
          </mxGeometry>
        </mxCell>
        <mxCell id="0hIwDiAUV1p9HRc8LsoU-33" style="edgeStyle=orthogonalEdgeStyle;rounded=0;orthogonalLoop=1;jettySize=auto;html=1;endArrow=oval;endFill=1;" edge="1" parent="1" source="0hIwDiAUV1p9HRc8LsoU-1">
          <mxGeometry relative="1" as="geometry">
            <mxPoint x="490" y="120" as="targetPoint" />
          </mxGeometry>
        </mxCell>
        <mxCell id="0hIwDiAUV1p9HRc8LsoU-34" style="edgeStyle=orthogonalEdgeStyle;rounded=0;orthogonalLoop=1;jettySize=auto;html=1;exitX=0.75;exitY=0;exitDx=0;exitDy=0;endArrow=oval;endFill=0;" edge="1" parent="1" source="0hIwDiAUV1p9HRc8LsoU-1">
          <mxGeometry relative="1" as="geometry">
            <mxPoint x="510.1428571428571" y="120" as="targetPoint" />
          </mxGeometry>
        </mxCell>
        <mxCell id="0hIwDiAUV1p9HRc8LsoU-1" value="Medico" style="whiteSpace=wrap;html=1;aspect=fixed;" vertex="1" parent="1">
          <mxGeometry x="450" y="160" width="80" height="80" as="geometry" />
        </mxCell>
        <mxCell id="0hIwDiAUV1p9HRc8LsoU-28" style="edgeStyle=orthogonalEdgeStyle;rounded=0;orthogonalLoop=1;jettySize=auto;html=1;exitX=0.25;exitY=1;exitDx=0;exitDy=0;endArrow=oval;endFill=1;" edge="1" parent="1" source="0hIwDiAUV1p9HRc8LsoU-2">
          <mxGeometry relative="1" as="geometry">
            <mxPoint x="682.7142857142858" y="280" as="targetPoint" />
          </mxGeometry>
        </mxCell>
        <mxCell id="0hIwDiAUV1p9HRc8LsoU-29" style="edgeStyle=orthogonalEdgeStyle;rounded=0;orthogonalLoop=1;jettySize=auto;html=1;endArrow=oval;endFill=0;" edge="1" parent="1" source="0hIwDiAUV1p9HRc8LsoU-2">
          <mxGeometry relative="1" as="geometry">
            <mxPoint x="705" y="280" as="targetPoint" />
          </mxGeometry>
        </mxCell>
        <mxCell id="0hIwDiAUV1p9HRc8LsoU-30" style="edgeStyle=orthogonalEdgeStyle;rounded=0;orthogonalLoop=1;jettySize=auto;html=1;exitX=0.75;exitY=1;exitDx=0;exitDy=0;endArrow=oval;endFill=0;" edge="1" parent="1" source="0hIwDiAUV1p9HRc8LsoU-2">
          <mxGeometry relative="1" as="geometry">
            <mxPoint x="727" y="280" as="targetPoint" />
          </mxGeometry>
        </mxCell>
        <mxCell id="0hIwDiAUV1p9HRc8LsoU-2" value="especialidade" style="whiteSpace=wrap;html=1;aspect=fixed;" vertex="1" parent="1">
          <mxGeometry x="660" y="150" width="90" height="90" as="geometry" />
        </mxCell>
        <mxCell id="0hIwDiAUV1p9HRc8LsoU-35" style="edgeStyle=orthogonalEdgeStyle;rounded=0;orthogonalLoop=1;jettySize=auto;html=1;exitX=0.25;exitY=0;exitDx=0;exitDy=0;endArrow=oval;endFill=0;" edge="1" parent="1" source="0hIwDiAUV1p9HRc8LsoU-3">
          <mxGeometry relative="1" as="geometry">
            <mxPoint x="242.71428571428567" y="120" as="targetPoint" />
          </mxGeometry>
        </mxCell>
        <mxCell id="0hIwDiAUV1p9HRc8LsoU-36" style="edgeStyle=orthogonalEdgeStyle;rounded=0;orthogonalLoop=1;jettySize=auto;html=1;exitX=0;exitY=0;exitDx=0;exitDy=0;endArrow=oval;endFill=1;" edge="1" parent="1" source="0hIwDiAUV1p9HRc8LsoU-3">
          <mxGeometry relative="1" as="geometry">
            <mxPoint x="219.8571428571429" y="120" as="targetPoint" />
          </mxGeometry>
        </mxCell>
        <mxCell id="0hIwDiAUV1p9HRc8LsoU-37" style="edgeStyle=orthogonalEdgeStyle;rounded=0;orthogonalLoop=1;jettySize=auto;html=1;exitX=0.5;exitY=0;exitDx=0;exitDy=0;endArrow=oval;endFill=0;" edge="1" parent="1" source="0hIwDiAUV1p9HRc8LsoU-3">
          <mxGeometry relative="1" as="geometry">
            <mxPoint x="265" y="120" as="targetPoint" />
          </mxGeometry>
        </mxCell>
        <mxCell id="0hIwDiAUV1p9HRc8LsoU-39" style="edgeStyle=orthogonalEdgeStyle;rounded=0;orthogonalLoop=1;jettySize=auto;html=1;exitX=0.75;exitY=0;exitDx=0;exitDy=0;endArrow=oval;endFill=0;" edge="1" parent="1" source="0hIwDiAUV1p9HRc8LsoU-3">
          <mxGeometry relative="1" as="geometry">
            <mxPoint x="280" y="120" as="targetPoint" />
          </mxGeometry>
        </mxCell>
        <mxCell id="0hIwDiAUV1p9HRc8LsoU-40" style="edgeStyle=orthogonalEdgeStyle;rounded=0;orthogonalLoop=1;jettySize=auto;html=1;exitX=0.75;exitY=0;exitDx=0;exitDy=0;endArrow=oval;endFill=1;" edge="1" parent="1" source="0hIwDiAUV1p9HRc8LsoU-3">
          <mxGeometry relative="1" as="geometry">
            <mxPoint x="287.28571428571433" y="120" as="targetPoint" />
          </mxGeometry>
        </mxCell>
        <mxCell id="0hIwDiAUV1p9HRc8LsoU-41" style="edgeStyle=orthogonalEdgeStyle;rounded=0;orthogonalLoop=1;jettySize=auto;html=1;exitX=1;exitY=0;exitDx=0;exitDy=0;endArrow=oval;endFill=0;" edge="1" parent="1" source="0hIwDiAUV1p9HRc8LsoU-3">
          <mxGeometry relative="1" as="geometry">
            <mxPoint x="310.1428571428571" y="120" as="targetPoint" />
          </mxGeometry>
        </mxCell>
        <mxCell id="0hIwDiAUV1p9HRc8LsoU-3" value="paciente" style="whiteSpace=wrap;html=1;aspect=fixed;" vertex="1" parent="1">
          <mxGeometry x="220" y="155" width="90" height="90" as="geometry" />
        </mxCell>
        <mxCell id="0hIwDiAUV1p9HRc8LsoU-14" style="edgeStyle=orthogonalEdgeStyle;rounded=0;orthogonalLoop=1;jettySize=auto;html=1;exitX=0;exitY=0.5;exitDx=0;exitDy=0;entryX=0.5;entryY=1;entryDx=0;entryDy=0;endArrow=none;endFill=0;" edge="1" parent="1" source="0hIwDiAUV1p9HRc8LsoU-5" target="0hIwDiAUV1p9HRc8LsoU-3">
          <mxGeometry relative="1" as="geometry" />
        </mxCell>
        <mxCell id="0hIwDiAUV1p9HRc8LsoU-15" style="edgeStyle=orthogonalEdgeStyle;rounded=0;orthogonalLoop=1;jettySize=auto;html=1;entryX=0.5;entryY=1;entryDx=0;entryDy=0;endArrow=none;endFill=0;" edge="1" parent="1" source="0hIwDiAUV1p9HRc8LsoU-5" target="0hIwDiAUV1p9HRc8LsoU-1">
          <mxGeometry relative="1" as="geometry" />
        </mxCell>
        <mxCell id="0hIwDiAUV1p9HRc8LsoU-53" style="edgeStyle=orthogonalEdgeStyle;rounded=0;orthogonalLoop=1;jettySize=auto;html=1;exitX=0.25;exitY=1;exitDx=0;exitDy=0;endArrow=oval;endFill=1;" edge="1" parent="1" source="0hIwDiAUV1p9HRc8LsoU-5">
          <mxGeometry relative="1" as="geometry">
            <mxPoint x="362.8333333333335" y="449.9999999999998" as="targetPoint" />
          </mxGeometry>
        </mxCell>
        <mxCell id="0hIwDiAUV1p9HRc8LsoU-54" style="edgeStyle=orthogonalEdgeStyle;rounded=0;orthogonalLoop=1;jettySize=auto;html=1;exitX=0.5;exitY=1;exitDx=0;exitDy=0;endArrow=oval;endFill=1;" edge="1" parent="1" source="0hIwDiAUV1p9HRc8LsoU-5">
          <mxGeometry relative="1" as="geometry">
            <mxPoint x="385.3333333333335" y="439.9999999999998" as="targetPoint" />
          </mxGeometry>
        </mxCell>
        <mxCell id="0hIwDiAUV1p9HRc8LsoU-55" style="edgeStyle=orthogonalEdgeStyle;rounded=0;orthogonalLoop=1;jettySize=auto;html=1;exitX=0.75;exitY=1;exitDx=0;exitDy=0;endArrow=oval;endFill=1;" edge="1" parent="1" source="0hIwDiAUV1p9HRc8LsoU-5">
          <mxGeometry relative="1" as="geometry">
            <mxPoint x="407.8333333333335" y="439.9999999999998" as="targetPoint" />
          </mxGeometry>
        </mxCell>
        <mxCell id="0hIwDiAUV1p9HRc8LsoU-56" style="edgeStyle=orthogonalEdgeStyle;rounded=0;orthogonalLoop=1;jettySize=auto;html=1;exitX=1;exitY=1;exitDx=0;exitDy=0;endArrow=oval;endFill=0;" edge="1" parent="1" source="0hIwDiAUV1p9HRc8LsoU-5">
          <mxGeometry relative="1" as="geometry">
            <mxPoint x="430.3333333333335" y="439.9999999999998" as="targetPoint" />
          </mxGeometry>
        </mxCell>
        <mxCell id="0hIwDiAUV1p9HRc8LsoU-5" value="Consulta" style="whiteSpace=wrap;html=1;aspect=fixed;" vertex="1" parent="1">
          <mxGeometry x="340" y="300" width="90" height="90" as="geometry" />
        </mxCell>
        <mxCell id="0hIwDiAUV1p9HRc8LsoU-8" style="edgeStyle=orthogonalEdgeStyle;rounded=0;orthogonalLoop=1;jettySize=auto;html=1;endArrow=none;endFill=0;" edge="1" parent="1" source="0hIwDiAUV1p9HRc8LsoU-20" target="0hIwDiAUV1p9HRc8LsoU-3">
          <mxGeometry relative="1" as="geometry" />
        </mxCell>
        <mxCell id="0hIwDiAUV1p9HRc8LsoU-42" style="edgeStyle=orthogonalEdgeStyle;rounded=0;orthogonalLoop=1;jettySize=auto;html=1;exitX=0.25;exitY=0;exitDx=0;exitDy=0;endArrow=oval;endFill=1;" edge="1" parent="1" source="0hIwDiAUV1p9HRc8LsoU-7">
          <mxGeometry relative="1" as="geometry">
            <mxPoint x="39.85714285714289" y="120" as="targetPoint" />
          </mxGeometry>
        </mxCell>
        <mxCell id="0hIwDiAUV1p9HRc8LsoU-43" style="edgeStyle=orthogonalEdgeStyle;rounded=0;orthogonalLoop=1;jettySize=auto;html=1;exitX=0.5;exitY=0;exitDx=0;exitDy=0;endArrow=oval;endFill=0;" edge="1" parent="1" source="0hIwDiAUV1p9HRc8LsoU-7">
          <mxGeometry relative="1" as="geometry">
            <mxPoint x="59.85714285714289" y="120" as="targetPoint" />
          </mxGeometry>
        </mxCell>
        <mxCell id="0hIwDiAUV1p9HRc8LsoU-44" style="edgeStyle=orthogonalEdgeStyle;rounded=0;orthogonalLoop=1;jettySize=auto;html=1;exitX=0.75;exitY=0;exitDx=0;exitDy=0;endArrow=oval;endFill=0;" edge="1" parent="1" source="0hIwDiAUV1p9HRc8LsoU-7">
          <mxGeometry relative="1" as="geometry">
            <mxPoint x="79.85714285714289" y="120" as="targetPoint" />
          </mxGeometry>
        </mxCell>
        <mxCell id="0hIwDiAUV1p9HRc8LsoU-62" style="edgeStyle=orthogonalEdgeStyle;rounded=0;orthogonalLoop=1;jettySize=auto;html=1;exitX=1;exitY=0;exitDx=0;exitDy=0;endArrow=oval;endFill=1;" edge="1" parent="1" source="0hIwDiAUV1p9HRc8LsoU-7">
          <mxGeometry relative="1" as="geometry">
            <mxPoint x="100.33333333333337" y="120" as="targetPoint" />
          </mxGeometry>
        </mxCell>
        <mxCell id="0hIwDiAUV1p9HRc8LsoU-7" value="telefone" style="whiteSpace=wrap;html=1;aspect=fixed;" vertex="1" parent="1">
          <mxGeometry x="20" y="160" width="80" height="80" as="geometry" />
        </mxCell>
        <mxCell id="0hIwDiAUV1p9HRc8LsoU-11" value="possui/&lt;div&gt;engloba&lt;/div&gt;" style="rhombus;whiteSpace=wrap;html=1;" vertex="1" parent="1">
          <mxGeometry x="570" y="160" width="60" height="65" as="geometry" />
        </mxCell>
        <mxCell id="0hIwDiAUV1p9HRc8LsoU-16" value="esta/&lt;div&gt;possui&lt;/div&gt;" style="rhombus;whiteSpace=wrap;html=1;" vertex="1" parent="1">
          <mxGeometry x="232.5" y="270" width="65" height="60" as="geometry" />
        </mxCell>
        <mxCell id="0hIwDiAUV1p9HRc8LsoU-19" value="esta/&lt;div&gt;possui&lt;/div&gt;" style="rhombus;whiteSpace=wrap;html=1;" vertex="1" parent="1">
          <mxGeometry x="460" y="270" width="75" height="60" as="geometry" />
        </mxCell>
        <mxCell id="0hIwDiAUV1p9HRc8LsoU-21" value="" style="edgeStyle=orthogonalEdgeStyle;rounded=0;orthogonalLoop=1;jettySize=auto;html=1;endArrow=none;endFill=0;" edge="1" parent="1" source="0hIwDiAUV1p9HRc8LsoU-7" target="0hIwDiAUV1p9HRc8LsoU-20">
          <mxGeometry relative="1" as="geometry">
            <mxPoint x="100" y="200" as="sourcePoint" />
            <mxPoint x="220" y="200" as="targetPoint" />
          </mxGeometry>
        </mxCell>
        <mxCell id="0hIwDiAUV1p9HRc8LsoU-20" value="pertente/&lt;div&gt;possui&lt;/div&gt;" style="rhombus;whiteSpace=wrap;html=1;" vertex="1" parent="1">
          <mxGeometry x="130" y="168.75" width="60" height="62.5" as="geometry" />
        </mxCell>
        <mxCell id="0hIwDiAUV1p9HRc8LsoU-22" value="1" style="text;html=1;align=center;verticalAlign=middle;whiteSpace=wrap;rounded=0;" vertex="1" parent="1">
          <mxGeometry x="90" y="168.75" width="60" height="30" as="geometry" />
        </mxCell>
        <mxCell id="0hIwDiAUV1p9HRc8LsoU-24" value="N" style="text;html=1;align=center;verticalAlign=middle;whiteSpace=wrap;rounded=0;" vertex="1" parent="1">
          <mxGeometry x="173" y="169" width="60" height="30" as="geometry" />
        </mxCell>
        <mxCell id="0hIwDiAUV1p9HRc8LsoU-25" value="1" style="text;html=1;align=center;verticalAlign=middle;whiteSpace=wrap;rounded=0;" vertex="1" parent="1">
          <mxGeometry x="530" y="150" width="60" height="30" as="geometry" />
        </mxCell>
        <mxCell id="0hIwDiAUV1p9HRc8LsoU-26" value="N" style="text;html=1;align=center;verticalAlign=middle;whiteSpace=wrap;rounded=0;" vertex="1" parent="1">
          <mxGeometry x="610" y="155" width="60" height="30" as="geometry" />
        </mxCell>
        <mxCell id="0hIwDiAUV1p9HRc8LsoU-45" value="1- Id_paciente(PK)&lt;div&gt;2- nm_paciente&lt;/div&gt;&lt;div&gt;3-dt_nascimento_paciente&lt;/div&gt;" style="text;html=1;align=center;verticalAlign=middle;whiteSpace=wrap;rounded=0;" vertex="1" parent="1">
          <mxGeometry x="171.5" y="20" width="187" height="70" as="geometry" />
        </mxCell>
        <mxCell id="0hIwDiAUV1p9HRc8LsoU-46" value="1- Id_medico&lt;div&gt;2- Id_medico_especialidade(FK)&lt;/div&gt;&lt;div&gt;3- nm_medico&lt;/div&gt;" style="text;html=1;align=center;verticalAlign=middle;whiteSpace=wrap;rounded=0;" vertex="1" parent="1">
          <mxGeometry x="400" y="50" width="190" height="30" as="geometry" />
        </mxCell>
        <mxCell id="0hIwDiAUV1p9HRc8LsoU-47" value="1- Id_especialidade&lt;div&gt;2- nm_medico&amp;nbsp;&lt;/div&gt;&lt;div&gt;3- ic_ativo&lt;/div&gt;" style="text;html=1;align=center;verticalAlign=middle;whiteSpace=wrap;rounded=0;" vertex="1" parent="1">
          <mxGeometry x="645" y="90" width="120" height="30" as="geometry" />
        </mxCell>
        <mxCell id="0hIwDiAUV1p9HRc8LsoU-48" value="1- Id_telefone (PK)&lt;div&gt;2- ddd&lt;/div&gt;&lt;div&gt;3- telefone&lt;/div&gt;&lt;div&gt;4- Id_paciente_telefone (FK)&lt;/div&gt;" style="text;html=1;align=center;verticalAlign=middle;whiteSpace=wrap;rounded=0;" vertex="1" parent="1">
          <mxGeometry x="-15" y="60" width="165" height="30" as="geometry" />
        </mxCell>
        <mxCell id="0hIwDiAUV1p9HRc8LsoU-49" value="Telefone(em ordem)&amp;nbsp;" style="text;html=1;align=center;verticalAlign=middle;whiteSpace=wrap;rounded=0;" vertex="1" parent="1">
          <mxGeometry x="2.5" y="20" width="120" height="30" as="geometry" />
        </mxCell>
        <mxCell id="0hIwDiAUV1p9HRc8LsoU-50" value="Paciente(em ordem)" style="text;html=1;align=center;verticalAlign=middle;whiteSpace=wrap;rounded=0;" vertex="1" parent="1">
          <mxGeometry x="205" y="-20" width="120" height="30" as="geometry" />
        </mxCell>
        <mxCell id="0hIwDiAUV1p9HRc8LsoU-51" value="Medico( em ordem)&amp;nbsp;" style="text;html=1;align=center;verticalAlign=middle;whiteSpace=wrap;rounded=0;" vertex="1" parent="1">
          <mxGeometry x="430" y="10" width="120" height="30" as="geometry" />
        </mxCell>
        <mxCell id="0hIwDiAUV1p9HRc8LsoU-52" value="Especialidade( em ordem)" style="text;html=1;align=center;verticalAlign=middle;whiteSpace=wrap;rounded=0;" vertex="1" parent="1">
          <mxGeometry x="630" y="40" width="150" height="30" as="geometry" />
        </mxCell>
        <mxCell id="0hIwDiAUV1p9HRc8LsoU-57" value="N" style="text;html=1;align=center;verticalAlign=middle;whiteSpace=wrap;rounded=0;" vertex="1" parent="1">
          <mxGeometry x="270" y="245" width="60" height="40" as="geometry" />
        </mxCell>
        <mxCell id="0hIwDiAUV1p9HRc8LsoU-58" value="1" style="text;html=1;align=center;verticalAlign=middle;whiteSpace=wrap;rounded=0;" vertex="1" parent="1">
          <mxGeometry x="270" y="310" width="60" height="30" as="geometry" />
        </mxCell>
        <mxCell id="0hIwDiAUV1p9HRc8LsoU-59" value="N" style="text;html=1;align=center;verticalAlign=middle;whiteSpace=wrap;rounded=0;" vertex="1" parent="1">
          <mxGeometry x="430" y="310" width="60" height="30" as="geometry" />
        </mxCell>
        <mxCell id="0hIwDiAUV1p9HRc8LsoU-60" value="1" style="text;html=1;align=center;verticalAlign=middle;whiteSpace=wrap;rounded=0;" vertex="1" parent="1">
          <mxGeometry x="430" y="255" width="60" height="30" as="geometry" />
        </mxCell>
        <mxCell id="0hIwDiAUV1p9HRc8LsoU-61" value="Consulta(em ordem)&lt;div&gt;&lt;br&gt;&lt;/div&gt;&lt;div&gt;1- Id_consulta (PK)&lt;/div&gt;&lt;div&gt;2- Id_medico_consulta (FK)&lt;/div&gt;&lt;div&gt;3- id_paciente_consulta (FK)&lt;/div&gt;&lt;div&gt;4- dt_consulta_paciente&lt;/div&gt;" style="text;html=1;align=center;verticalAlign=middle;whiteSpace=wrap;rounded=0;" vertex="1" parent="1">
          <mxGeometry x="297.5" y="490" width="190" height="30" as="geometry" />
        </mxCell>
      </root>
    </mxGraphModel>
  </diagram>
</mxfile>
